<svg id="グループ_39" data-name="グループ 39" xmlns="http://www.w3.org/2000/svg" xmlns:xlink="http://www.w3.org/1999/xlink" width="35" height="33.349" viewBox="0 0 35 33.349">
  <defs>
    <clipPath id="clip-path">
      <rect id="長方形_102" data-name="長方形 102" width="35" height="33.349" fill="none"/>
    </clipPath>
  </defs>
  <g id="グループ_38" data-name="グループ 38" clip-path="url(#clip-path)">
    <path id="パス_16" data-name="パス 16" d="M35,14.2C35,6.371,27.15,0,17.5,0S0,6.371,0,14.2c0,7.02,6.226,12.9,14.636,14.011.57.123,1.346.376,1.542.863a3.594,3.594,0,0,1,.057,1.582s-.205,1.235-.25,1.5c-.076.442-.352,1.73,1.516.943s10.078-5.934,13.75-10.16h0A12.636,12.636,0,0,0,35,14.2" fill="#fff"/>
    <path id="パス_17" data-name="パス 17" d="M151.124,71.816h-4.917a.334.334,0,0,1-.334-.334v-.005h0V63.852h0v-.007a.334.334,0,0,1,.334-.334h4.917a.335.335,0,0,1,.334.334v1.241a.334.334,0,0,1-.334.334h-3.341v1.289h3.341a.335.335,0,0,1,.334.334v1.241a.334.334,0,0,1-.334.334h-3.341v1.289h3.341a.335.335,0,0,1,.334.334v1.241a.334.334,0,0,1-.334.334" transform="translate(-121.946 -53.093)" fill="#06c755"/>
    <path id="パス_18" data-name="パス 18" d="M40.25,71.816a.334.334,0,0,0,.334-.334V70.24a.335.335,0,0,0-.334-.334H36.908V63.844a.335.335,0,0,0-.334-.334H35.333a.334.334,0,0,0-.334.334v7.631h0v.005a.334.334,0,0,0,.334.334H40.25Z" transform="translate(-29.258 -53.093)" fill="#06c755"/>
    <path id="パス_19" data-name="パス 19" d="M77.026,63.51H75.785a.334.334,0,0,0-.334.334v7.638a.334.334,0,0,0,.334.334h1.241a.334.334,0,0,0,.334-.334V63.844a.334.334,0,0,0-.334-.334" transform="translate(-63.075 -53.093)" fill="#06c755"/>
    <path id="パス_20" data-name="パス 20" d="M101.288,63.51h-1.241a.334.334,0,0,0-.334.334V68.38l-3.494-4.719a.37.37,0,0,0-.027-.035l0,0-.02-.021-.006-.006-.018-.015-.009-.007-.018-.012-.01-.006-.019-.01-.01-.005-.02-.009-.011,0-.02-.006-.012,0-.02,0-.014,0-.018,0H94.7a.334.334,0,0,0-.334.334v7.638a.334.334,0,0,0,.334.334h1.241a.334.334,0,0,0,.334-.334V66.947l3.5,4.725a.338.338,0,0,0,.086.084l0,0,.021.013.01.005.016.008.016.007.01,0,.023.007h0a.341.341,0,0,0,.087.012h1.234a.334.334,0,0,0,.334-.334V63.844a.334.334,0,0,0-.334-.334" transform="translate(-78.888 -53.093)" fill="#06c755"/>
  </g>
</svg>
