<svg data-name="グループ 39" xmlns="http://www.w3.org/2000/svg" width="35" height="33.349"><defs><clipPath id="a"><path data-name="長方形 102" fill="none" d="M0 0h35v33.349H0z"/></clipPath></defs><g data-name="グループ 38" clip-path="url(#a)"><path data-name="パス 16" d="M35 14.2C35 6.371 27.15 0 17.5 0S0 6.371 0 14.2c0 7.02 6.226 12.9 14.636 14.011.57.123 1.346.376 1.542.863a3.594 3.594 0 01.057 1.582l-.25 1.5c-.076.442-.352 1.73 1.516.943s10.078-5.934 13.75-10.16A12.636 12.636 0 0035 14.2" fill="#fff"/><path data-name="パス 17" d="M29.178 18.723h-4.917a.334.334 0 01-.334-.334v-7.637a.334.334 0 01.334-.334h4.917a.335.335 0 01.334.334v1.241a.334.334 0 01-.334.334h-3.341v1.289h3.341a.335.335 0 01.334.334v1.241a.334.334 0 01-.334.334h-3.341v1.289h3.341a.335.335 0 01.334.334v1.241a.334.334 0 01-.334.334" fill="#06c755"/><path data-name="パス 18" d="M10.992 18.723a.334.334 0 00.334-.334v-1.242a.335.335 0 00-.334-.334H7.65v-6.062a.335.335 0 00-.334-.334H6.075a.334.334 0 00-.334.334v7.636a.334.334 0 00.334.334h4.917z" fill="#06c755"/><path data-name="パス 19" d="M13.951 10.417H12.71a.334.334 0 00-.334.334v7.638a.334.334 0 00.334.334h1.241a.334.334 0 00.334-.334v-7.638a.334.334 0 00-.334-.334" fill="#06c755"/><path data-name="パス 20" d="M22.4 10.417h-1.241a.334.334 0 00-.334.334v4.536l-3.494-4.719a.37.37 0 00-.027-.035l-.02-.021-.006-.006-.018-.015-.009-.007-.018-.012-.01-.006-.019-.01-.01-.005-.02-.009h-.011l-.02-.006h-1.331a.334.334 0 00-.334.334v7.638a.334.334 0 00.334.334h1.241a.334.334 0 00.334-.334v-4.554l3.5 4.725a.338.338 0 00.086.084l.021.013.01.005.016.008.016.007h.01l.023.007a.341.341 0 00.087.012h1.234a.334.334 0 00.334-.334v-7.63a.334.334 0 00-.334-.334" fill="#06c755"/></g></svg>